<?xml version="1.0" encoding="UTF-8" standalone="no"?><!DOCTYPE svg PUBLIC "-//W3C//DTD SVG 1.1//EN" "http://www.w3.org/Graphics/SVG/1.1/DTD/svg11.dtd"><!-- Generated by graphviz version 2.40.1 (20161225.0304)
 --><!-- Title: G Pages: 1 --><svg xmlns="http://www.w3.org/2000/svg" xmlns:xlink="http://www.w3.org/1999/xlink" width="199pt" height="138pt" viewBox="0.00 0.00 199.00 138.00">
<g id="graph0" class="graph" transform="scale(1 1) rotate(0) translate(4 134)">
<title>G</title>
<polygon fill="#ffffff" stroke="transparent" points="-4,4 -4,-134 195,-134 195,4 -4,4"/>
<!-- 法 -->
<g id="node1" class="node">
<title>法</title>
<ellipse fill="#d3d3d3" stroke="#000000" cx="26.7136" cy="-53.3908" rx="27" ry="18"/>
<text text-anchor="middle" x="26.7136" y="-49.1908" font-family="Times,serif" font-size="14.00" fill="#000000">法</text>
</g>
<!-- 法的概念 -->
<g id="node2" class="node">
<title>法的概念</title>
<ellipse fill="#d3d3d3" stroke="#000000" cx="130.5614" cy="-18.4852" rx="46.9175" ry="18"/>
<text text-anchor="middle" x="130.5614" y="-14.2852" font-family="Times,serif" font-size="14.00" fill="#000000">法的概念</text>
</g>
<!-- 法&#45;&gt;法的概念 -->
<g id="edge1" class="edge">
<title>法-&gt;法的概念</title>
<path fill="none" stroke="#000000" d="M51.0613,-45.207C61.3652,-41.7436 73.71,-37.5942 85.5645,-33.6097"/>
<polygon fill="#000000" stroke="#000000" points="86.9875,-36.8239 95.3512,-30.3201 84.7572,-30.1886 86.9875,-36.8239"/>
</g>
<!-- 中心问题 -->
<g id="node3" class="node">
<title>中心问题</title>
<ellipse fill="none" stroke="#000000" cx="133.5358" cy="-67.5224" rx="57.927" ry="18"/>
<text text-anchor="middle" x="133.5358" y="-63.3224" font-family="Times,serif" font-size="14.00" fill="#000000">中心问题</text>
</g>
<!-- 法的概念&#45;&gt;中心问题 -->
<g id="edge2" class="edge">
<title>法的概念-&gt;中心问题</title>
<path fill="none" stroke="#000000" d="M131.669,-36.7448C131.716,-37.5209 131.7637,-38.3059 131.8116,-39.0965"/>
<polygon fill="#000000" stroke="#000000" points="128.3381,-39.641 132.4372,-49.4107 135.3253,-39.2172 128.3381,-39.641"/>
</g>
<!-- 中心问题&#45;&gt;法 -->
<g id="edge4" class="edge">
<title>中心问题-&gt;法</title>
<path fill="none" stroke="#000000" d="M80.1247,-60.4566C74.4671,-59.7081 68.8094,-58.9597 63.4057,-58.2448"/>
<polygon fill="#000000" stroke="#000000" points="63.7665,-54.7621 53.3938,-56.9203 62.8484,-61.7017 63.7665,-54.7621"/>
</g>
<!-- 道德 -->
<g id="node4" class="node">
<title>道德</title>
<ellipse fill="#d3d3d3" stroke="#000000" cx="129.0003" cy="-111.5564" rx="31.0876" ry="18"/>
<text text-anchor="middle" x="129.0003" y="-107.3564" font-family="Times,serif" font-size="14.00" fill="#000000">道德</text>
</g>
<!-- 中心问题&#45;&gt;道德 -->
<g id="edge3" class="edge">
<title>中心问题-&gt;道德</title>
<path fill="none" stroke="#000000" d="M131.6648,-85.6869C131.6484,-85.8468 131.6319,-86.007 131.6153,-86.1675"/>
<polygon fill="#000000" stroke="#000000" points="128.4101,-83.1276 130.8669,-93.4336 135.3732,-83.8449 128.4101,-83.1276"/>
</g>
</g>
</svg>