<?xml version="1.0" encoding="UTF-8" standalone="no"?><!DOCTYPE svg PUBLIC "-//W3C//DTD SVG 1.1//EN" "http://www.w3.org/Graphics/SVG/1.1/DTD/svg11.dtd"><!-- Generated by graphviz version 2.40.1 (20161225.0304)
 --><!-- Title: G Pages: 1 --><svg xmlns="http://www.w3.org/2000/svg" xmlns:xlink="http://www.w3.org/1999/xlink" width="457pt" height="116pt" viewBox="0.00 0.00 456.83 116.00">
<g id="graph0" class="graph" transform="scale(1 1) rotate(0) translate(4 112)">
<title>G</title>
<polygon fill="#ffffff" stroke="transparent" points="-4,4 -4,-112 452.8316,-112 452.8316,4 -4,4"/>
<!-- 支撑构件 -->
<g id="node1" class="node">
<title>支撑构件</title>
<ellipse fill="none" stroke="#000000" cx="47.335" cy="-90" rx="47.1706" ry="18"/>
<text text-anchor="middle" x="47.335" y="-85.8" font-family="Times,serif" font-size="14.00" fill="#000000">支撑构件</text>
</g>
<!-- 最低值 -->
<g id="node5" class="node">
<title>最低值</title>
<ellipse fill="none" stroke="#000000" cx="224.335" cy="-18" rx="47.0014" ry="18"/>
<text text-anchor="middle" x="224.335" y="-13.8" font-family="Times,serif" font-size="14.00" fill="#000000">最低值</text>
</g>
<!-- 支撑构件&#45;&gt;最低值 -->
<g id="edge1" class="edge">
<title>支撑构件-&gt;最低值</title>
<path fill="none" stroke="#000000" d="M79.7996,-76.7941C108.6516,-65.0577 151.0017,-47.8305 182.4085,-35.0548"/>
<polygon fill="#000000" stroke="#000000" points="183.8329,-38.254 191.7771,-31.2439 181.1953,-31.7699 183.8329,-38.254"/>
</g>
<!-- 钢筋混凝土 -->
<g id="node2" class="node">
<title>钢筋混凝土</title>
<ellipse fill="none" stroke="#000000" cx="169.335" cy="-90" rx="56.9029" ry="18"/>
<text text-anchor="middle" x="169.335" y="-85.8" font-family="Times,serif" font-size="14.00" fill="#000000">钢筋混凝土</text>
</g>
<!-- 钢筋混凝土&#45;&gt;最低值 -->
<g id="edge2" class="edge">
<title>钢筋混凝土-&gt;最低值</title>
<path fill="none" stroke="#000000" d="M182.9305,-72.2022C189.5735,-63.506 197.6855,-52.8867 204.963,-43.3598"/>
<polygon fill="#000000" stroke="#000000" points="207.7966,-45.416 211.0857,-35.3446 202.2339,-41.1667 207.7966,-45.416"/>
</g>
<!-- 混凝土 -->
<g id="node3" class="node">
<title>混凝土</title>
<ellipse fill="none" stroke="#000000" cx="279.335" cy="-90" rx="34.8893" ry="18"/>
<text text-anchor="middle" x="279.335" y="-85.8" font-family="Times,serif" font-size="14.00" fill="#000000">混凝土</text>
</g>
<!-- 混凝土&#45;&gt;最低值 -->
<g id="edge3" class="edge">
<title>混凝土-&gt;最低值</title>
<path fill="none" stroke="#000000" d="M266.3008,-72.937C259.618,-64.1886 251.3419,-53.3545 243.9101,-43.6256"/>
<polygon fill="#000000" stroke="#000000" points="246.5096,-41.2627 237.6578,-35.4407 240.9469,-45.5121 246.5096,-41.2627"/>
</g>
<!-- 强度等级 -->
<g id="node4" class="node">
<title>强度等级</title>
<ellipse fill="none" stroke="#000000" cx="390.335" cy="-90" rx="58.4931" ry="18"/>
<text text-anchor="middle" x="390.335" y="-85.8" font-family="Times,serif" font-size="14.00" fill="#000000">强度等级</text>
</g>
<!-- 强度等级&#45;&gt;最低值 -->
<g id="edge4" class="edge">
<title>强度等级-&gt;最低值</title>
<path fill="none" stroke="#000000" d="M356.3419,-75.256C329.9534,-63.8104 293.2683,-47.8988 265.267,-35.7536"/>
<polygon fill="#000000" stroke="#000000" points="266.3228,-32.3965 255.7558,-31.6283 263.5373,-38.8185 266.3228,-32.3965"/>
</g>
</g>
</svg>