<?xml version="1.0" encoding="UTF-8" standalone="no"?><!DOCTYPE svg PUBLIC "-//W3C//DTD SVG 1.1//EN" "http://www.w3.org/Graphics/SVG/1.1/DTD/svg11.dtd"><!-- Generated by graphviz version 2.40.1 (20161225.0304)
 --><!-- Title: G Pages: 1 --><svg xmlns="http://www.w3.org/2000/svg" xmlns:xlink="http://www.w3.org/1999/xlink" width="498pt" height="260pt" viewBox="0.00 0.00 497.83 260.00">
<g id="graph0" class="graph" transform="scale(1 1) rotate(0) translate(4 256)">
<title>G</title>
<polygon fill="#ffffff" stroke="transparent" points="-4,4 -4,-256 493.8316,-256 493.8316,4 -4,4"/>
<!-- 支撑构件 -->
<g id="node1" class="node">
<title>支撑构件</title>
<ellipse fill="none" stroke="#000000" cx="47.335" cy="-234" rx="47.1706" ry="18"/>
<text text-anchor="middle" x="47.335" y="-229.8" font-family="Times,serif" font-size="14.00" fill="#000000">支撑构件</text>
</g>
<!-- 钢筋混凝土支撑构件 -->
<g id="node3" class="node">
<title>钢筋混凝土支撑构件</title>
<ellipse fill="none" stroke="#000000" cx="148.335" cy="-162" rx="93.5006" ry="18"/>
<text text-anchor="middle" x="148.335" y="-157.8" font-family="Times,serif" font-size="14.00" fill="#000000">钢筋混凝土支撑构件</text>
</g>
<!-- 支撑构件&#45;&gt;钢筋混凝土支撑构件 -->
<g id="edge1" class="edge">
<title>支撑构件-&gt;钢筋混凝土支撑构件</title>
<path fill="none" stroke="#000000" d="M69.7502,-218.0209C83.1587,-208.4624 100.4403,-196.1428 115.3817,-185.4915"/>
<polygon fill="#000000" stroke="#000000" points="117.7505,-188.1012 123.8616,-179.4464 113.6871,-182.4012 117.7505,-188.1012"/>
</g>
<!-- 钢筋混凝土 -->
<g id="node2" class="node">
<title>钢筋混凝土</title>
<ellipse fill="none" stroke="#000000" cx="169.335" cy="-234" rx="56.9029" ry="18"/>
<text text-anchor="middle" x="169.335" y="-229.8" font-family="Times,serif" font-size="14.00" fill="#000000">钢筋混凝土</text>
</g>
<!-- 钢筋混凝土&#45;&gt;钢筋混凝土支撑构件 -->
<g id="edge2" class="edge">
<title>钢筋混凝土-&gt;钢筋混凝土支撑构件</title>
<path fill="none" stroke="#000000" d="M164.0358,-215.8314C161.7652,-208.0463 159.0605,-198.7729 156.541,-190.1347"/>
<polygon fill="#000000" stroke="#000000" points="159.8656,-189.0332 153.7056,-180.4133 153.1456,-190.9933 159.8656,-189.0332"/>
</g>
<!-- 钢筋混凝土支撑构件的混凝土强度等级 -->
<g id="node7" class="node">
<title>钢筋混凝土支撑构件的混凝土强度等级</title>
<ellipse fill="none" stroke="#000000" cx="244.335" cy="-90" rx="171.7206" ry="18"/>
<text text-anchor="middle" x="244.335" y="-85.8" font-family="Times,serif" font-size="14.00" fill="#000000">钢筋混凝土支撑构件的混凝土强度等级</text>
</g>
<!-- 钢筋混凝土支撑构件&#45;&gt;钢筋混凝土支撑构件的混凝土强度等级 -->
<g id="edge6" class="edge">
<title>钢筋混凝土支撑构件-&gt;钢筋混凝土支撑构件的混凝土强度等级</title>
<path fill="none" stroke="#000000" d="M172.0654,-144.2022C184.1809,-135.1156 199.0959,-123.9294 212.2236,-114.0836"/>
<polygon fill="#000000" stroke="#000000" points="214.645,-116.6426 220.545,-107.8425 210.4449,-111.0426 214.645,-116.6426"/>
</g>
<!-- 混凝土 -->
<g id="node4" class="node">
<title>混凝土</title>
<ellipse fill="none" stroke="#000000" cx="320.335" cy="-234" rx="34.8893" ry="18"/>
<text text-anchor="middle" x="320.335" y="-229.8" font-family="Times,serif" font-size="14.00" fill="#000000">混凝土</text>
</g>
<!-- 混凝土强度等级 -->
<g id="node6" class="node">
<title>混凝土强度等级</title>
<ellipse fill="none" stroke="#000000" cx="341.335" cy="-162" rx="82.3085" ry="18"/>
<text text-anchor="middle" x="341.335" y="-157.8" font-family="Times,serif" font-size="14.00" fill="#000000">混凝土强度等级</text>
</g>
<!-- 混凝土&#45;&gt;混凝土强度等级 -->
<g id="edge3" class="edge">
<title>混凝土-&gt;混凝土强度等级</title>
<path fill="none" stroke="#000000" d="M325.526,-216.2022C327.8558,-208.2146 330.6587,-198.6045 333.2533,-189.7087"/>
<polygon fill="#000000" stroke="#000000" points="336.6178,-190.6731 336.0579,-180.0931 329.8978,-188.7131 336.6178,-190.6731"/>
</g>
<!-- 强度等级 -->
<g id="node5" class="node">
<title>强度等级</title>
<ellipse fill="none" stroke="#000000" cx="431.335" cy="-234" rx="58.4931" ry="18"/>
<text text-anchor="middle" x="431.335" y="-229.8" font-family="Times,serif" font-size="14.00" fill="#000000">强度等级</text>
</g>
<!-- 强度等级&#45;&gt;混凝土强度等级 -->
<g id="edge4" class="edge">
<title>强度等级-&gt;混凝土强度等级</title>
<path fill="none" stroke="#000000" d="M410.0063,-216.937C398.4081,-207.6584 383.877,-196.0336 371.172,-185.8696"/>
<polygon fill="#000000" stroke="#000000" points="373.131,-182.9546 363.1359,-179.4407 368.7581,-188.4207 373.131,-182.9546"/>
</g>
<!-- 混凝土强度等级&#45;&gt;钢筋混凝土支撑构件的混凝土强度等级 -->
<g id="edge5" class="edge">
<title>混凝土强度等级-&gt;钢筋混凝土支撑构件的混凝土强度等级</title>
<path fill="none" stroke="#000000" d="M317.854,-144.5708C305.503,-135.4031 290.1711,-124.0227 276.7095,-114.0305"/>
<polygon fill="#000000" stroke="#000000" points="278.7286,-111.1704 268.6128,-108.0206 274.5564,-116.7912 278.7286,-111.1704"/>
</g>
<!-- 最低值（属性） -->
<g id="node8" class="node">
<title>最低值（属性）</title>
<ellipse fill="none" stroke="#000000" cx="244.335" cy="-18" rx="95.5696" ry="18"/>
<text text-anchor="middle" x="244.335" y="-13.8" font-family="Times,serif" font-size="14.00" fill="#000000">最低值（属性）</text>
</g>
<!-- 钢筋混凝土支撑构件的混凝土强度等级&#45;&gt;最低值（属性） -->
<g id="edge7" class="edge">
<title>钢筋混凝土支撑构件的混凝土强度等级-&gt;最低值（属性）</title>
<path fill="none" stroke="#000000" d="M244.335,-71.8314C244.335,-64.131 244.335,-54.9743 244.335,-46.4166"/>
<polygon fill="#000000" stroke="#000000" points="247.8351,-46.4132 244.335,-36.4133 240.8351,-46.4133 247.8351,-46.4132"/>
</g>
</g>
</svg>