<?xml version="1.0" encoding="UTF-8" standalone="no"?><!DOCTYPE svg PUBLIC "-//W3C//DTD SVG 1.1//EN" "http://www.w3.org/Graphics/SVG/1.1/DTD/svg11.dtd"><!-- Generated by graphviz version 2.40.1 (20161225.0304)
 --><!-- Title: G Pages: 1 --><svg xmlns="http://www.w3.org/2000/svg" xmlns:xlink="http://www.w3.org/1999/xlink" width="188pt" height="137pt" viewBox="0.00 0.00 188.00 137.00">
<g id="graph0" class="graph" transform="scale(1 1) rotate(0) translate(4 133)">
<title>G</title>
<polygon fill="#ffffff" stroke="transparent" points="-4,4 -4,-133 184,-133 184,4 -4,4"/>
<!-- 中心问题 -->
<g id="node1" class="node">
<title>中心问题</title>
<ellipse fill="none" stroke="#000000" cx="58.0237" cy="-63.4927" rx="57.927" ry="18"/>
<text text-anchor="middle" x="58.0237" y="-59.2927" font-family="Times,serif" font-size="14.00" fill="#000000">中心问题</text>
</g>
<!-- 道德 -->
<g id="node2" class="node">
<title>道德</title>
<ellipse fill="#d3d3d3" stroke="#000000" cx="149.3693" cy="-111.1876" rx="31.0876" ry="18"/>
<text text-anchor="middle" x="149.3693" y="-106.9876" font-family="Times,serif" font-size="14.00" fill="#000000">道德</text>
</g>
<!-- 中心问题&#45;&gt;道德 -->
<g id="edge1" class="edge">
<title>中心问题-&gt;道德</title>
<path fill="none" stroke="#000000" d="M87.681,-78.9778C97.1556,-83.9249 107.6832,-89.4217 117.32,-94.4534"/>
<polygon fill="#000000" stroke="#000000" points="115.7386,-97.5761 126.223,-99.102 118.9786,-91.371 115.7386,-97.5761"/>
</g>
<!-- 法 -->
<g id="node3" class="node">
<title>法</title>
<ellipse fill="#d3d3d3" stroke="#000000" cx="62.4367" cy="-18.2138" rx="27" ry="18"/>
<text text-anchor="middle" x="62.4367" y="-14.0138" font-family="Times,serif" font-size="14.00" fill="#000000">法</text>
</g>
<!-- 中心问题&#45;&gt;法 -->
<g id="edge2" class="edge">
<title>中心问题-&gt;法</title>
<path fill="none" stroke="#000000" d="M59.7932,-45.3369C59.8022,-45.2447 59.8112,-45.1523 59.8202,-45.0598"/>
<polygon fill="#000000" stroke="#000000" points="63.1801,-46.666 60.6668,-36.3737 56.2131,-45.9869 63.1801,-46.666"/>
</g>
</g>
</svg>