<?xml version="1.0" encoding="UTF-8" standalone="no"?><!DOCTYPE svg PUBLIC "-//W3C//DTD SVG 1.1//EN" "http://www.w3.org/Graphics/SVG/1.1/DTD/svg11.dtd"><!-- Generated by graphviz version 2.40.1 (20161225.0304)
 --><!-- Title: G Pages: 1 --><svg xmlns="http://www.w3.org/2000/svg" xmlns:xlink="http://www.w3.org/1999/xlink" width="266pt" height="227pt" viewBox="0.00 0.00 266.00 227.00">
<g id="graph0" class="graph" transform="scale(1 1) rotate(0) translate(4 223)">
<title>G</title>
<polygon fill="#ffffff" stroke="transparent" points="-4,4 -4,-223 262,-223 262,4 -4,4"/>
<g id="clust1" class="cluster">
<title>clusterC</title>
<polygon fill="none" stroke="#000000" points=".1269,-92.6504 .1269,-218.6504 135.1269,-218.6504 135.1269,-92.6504 .1269,-92.6504"/>
<text text-anchor="middle" x="67.6269" y="-202.0504" font-family="Times,serif" font-size="14.00" fill="#000000">法的概念</text>
</g>
<!-- 法 -->
<g id="node1" class="node">
<title>法</title>
<ellipse fill="#d3d3d3" stroke="#000000" cx="100.1883" cy="-168.9973" rx="27" ry="18"/>
<text text-anchor="middle" x="100.1883" y="-164.7973" font-family="Times,serif" font-size="14.00" fill="#000000">法</text>
</g>
<!-- 概念 -->
<g id="node2" class="node">
<title>概念</title>
<ellipse fill="#d3d3d3" stroke="#000000" cx="38.365" cy="-118.2913" rx="29.6185" ry="18"/>
<text text-anchor="middle" x="38.365" y="-114.0913" font-family="Times,serif" font-size="14.00" fill="#000000">概念</text>
</g>
<!-- 中心问题 -->
<g id="node4" class="node">
<title>中心问题</title>
<ellipse fill="none" stroke="#000000" cx="199.7801" cy="-62.5399" rx="57.927" ry="18"/>
<text text-anchor="middle" x="199.7801" y="-58.3399" font-family="Times,serif" font-size="14.00" fill="#000000">中心问题</text>
</g>
<!-- 中心问题&#45;&gt;法 -->
<g id="edge3" class="edge">
<title>中心问题-&gt;法</title>
<path fill="none" stroke="#000000" d="M183.3345,-80.1192C166.4589,-98.1582 140.1257,-126.3067 121.6258,-146.082"/>
<polygon fill="#000000" stroke="#000000" points="118.9889,-143.7775 114.7131,-153.4712 124.1007,-148.5597 118.9889,-143.7775"/>
</g>
<!-- 道德 -->
<g id="node5" class="node">
<title>道德</title>
<ellipse fill="#d3d3d3" stroke="#000000" cx="190.118" cy="-18.4719" rx="31.0876" ry="18"/>
<text text-anchor="middle" x="190.118" y="-14.2719" font-family="Times,serif" font-size="14.00" fill="#000000">道德</text>
</g>
<!-- 中心问题&#45;&gt;道德 -->
<g id="edge2" class="edge">
<title>中心问题-&gt;道德</title>
<path fill="none" stroke="#000000" d="M195.7944,-44.3613C195.7593,-44.2013 195.7241,-44.041 195.6889,-43.8804"/>
<polygon fill="#000000" stroke="#000000" points="199.6551,-45.6271 194.0946,-36.6087 192.8176,-47.1263 199.6551,-45.6271"/>
</g>
<!-- __0:clusterC -->
<!-- __0:clusterC&#45;&gt;中心问题 -->
<g id="edge4" class="edge">
<title>__0:clusterC-&gt;中心问题</title>
<path fill="none" stroke="#000000" d="M135.252,-108.0041C146.6471,-99.9756 157.9806,-91.9903 167.8963,-85.0041"/>
<polygon fill="#000000" stroke="#000000" points="170.052,-87.7668 176.2109,-79.1459 166.0202,-82.0444 170.052,-87.7668"/>
</g>
</g>
</svg>