<?xml version="1.0" encoding="UTF-8" standalone="no"?><!DOCTYPE svg PUBLIC "-//W3C//DTD SVG 1.1//EN" "http://www.w3.org/Graphics/SVG/1.1/DTD/svg11.dtd"><!-- Generated by graphviz version 2.40.1 (20161225.0304)
 --><!-- Title: G Pages: 1 --><svg xmlns="http://www.w3.org/2000/svg" xmlns:xlink="http://www.w3.org/1999/xlink" width="172pt" height="133pt" viewBox="0.00 0.00 172.00 133.00">
<g id="graph0" class="graph" transform="scale(1 1) rotate(0) translate(4 129)">
<title>G</title>
<polygon fill="#ffffff" stroke="transparent" points="-4,4 -4,-129 168,-129 168,4 -4,4"/>
<!-- 法 -->
<g id="node1" class="node">
<title>法</title>
<ellipse fill="#d3d3d3" stroke="#000000" cx="27.4261" cy="-107.3871" rx="27" ry="18"/>
<text text-anchor="middle" x="27.4261" y="-103.1871" font-family="Times,serif" font-size="14.00" fill="#000000">法</text>
</g>
<!-- 概念/中心问题 -->
<g id="node2" class="node">
<title>概念/中心问题</title>
<ellipse fill="none" stroke="#000000" cx="84.5559" cy="-62.6957" rx="79.3386" ry="18"/>
<text text-anchor="middle" x="84.5559" y="-58.4957" font-family="Times,serif" font-size="14.00" fill="#000000">概念/中心问题</text>
</g>
<!-- 法&#45;&gt;概念/中心问题 -->
<g id="edge1" class="edge">
<title>法-&gt;概念/中心问题</title>
<path fill="none" stroke="#000000" d="M50.395,-97.5491C54.7827,-94.5173 59.3476,-91.0733 63.6663,-87.5483"/>
<polygon fill="#000000" stroke="#000000" points="66.2606,-89.9332 71.5563,-80.7568 61.694,-84.6279 66.2606,-89.9332"/>
</g>
<!-- 概念/中心问题&#45;&gt;法 -->
<g id="edge2" class="edge">
<title>概念/中心问题-&gt;法</title>
<path fill="none" stroke="#000000" d="M52.5024,-79.2025C50.5173,-80.7431 48.5544,-82.3211 46.652,-83.9067"/>
<polygon fill="#000000" stroke="#000000" points="44.0025,-81.5766 38.8162,-90.8152 48.6318,-86.8273 44.0025,-81.5766"/>
</g>
<!-- 道德 -->
<g id="node3" class="node">
<title>道德</title>
<ellipse fill="#d3d3d3" stroke="#000000" cx="85.0716" cy="-17.5785" rx="31.0876" ry="18"/>
<text text-anchor="middle" x="85.0716" y="-13.3785" font-family="Times,serif" font-size="14.00" fill="#000000">道德</text>
</g>
<!-- 概念/中心问题&#45;&gt;道德 -->
<g id="edge3" class="edge">
<title>概念/中心问题-&gt;道德</title>
<path fill="none" stroke="#000000" d="M84.7627,-44.6048C84.7637,-44.5128 84.7648,-44.4208 84.7658,-44.3287"/>
<polygon fill="#000000" stroke="#000000" points="88.2501,-45.7129 84.8647,-35.6735 81.2506,-45.6328 88.2501,-45.7129"/>
</g>
</g>
</svg>